<svg width="48" height="48" viewBox="0 0 48 48" fill="none" xmlns="http://www.w3.org/2000/svg">
<path d="M30.3444 6.34312L21.4717 15.2157L26.4436 20.1876L35.3163 11.315L30.3444 6.34312Z" fill="white"/>
<path d="M25.0719 21.5589L19.2305 27.3983L14.1788 22.3466L6.2633 30.2621L0 23.9988L13.7574 10.244L25.0719 21.5589Z" fill="white"/>
<path d="M24.0012 0L15.1286 8.87263L20.1005 13.8445L28.9731 4.97187L24.0012 0Z" fill="white"/>
<path d="M37.7582 34.2426L24.0012 48L7.6346 31.6334L14.1788 25.0867L19.2305 30.1409L26.4412 22.9282L37.7582 34.2426Z" fill="white"/>
<path d="M36.6848 12.6841L27.8122 21.5568L32.7862 26.5308L41.6589 17.6582L36.6848 12.6841Z" fill="white"/>
<path d="M43.0281 19.0268L34.1555 27.8994L39.1274 32.8713L48 23.9987L43.0281 19.0268Z" fill="white"/>
</svg>
